<svg width="82" height="82" viewBox="0 0 82 82" fill="none" xmlns="http://www.w3.org/2000/svg">
<path fill-rule="evenodd" clip-rule="evenodd" d="M33.8536 12.7059C36.9901 7.12989 45.0138 7.12989 48.1462 12.7059L71.0242 53.3779C74.0992 58.8473 70.1509 65.5959 63.882 65.5959H18.1219C11.8489 65.5959 7.90057 58.8473 10.9756 53.3779L33.8536 12.7059ZM45.0999 53.3C45.0999 54.3874 44.6679 55.4302 43.899 56.1991C43.1301 56.968 42.0873 57.4 40.9999 57.4C39.9125 57.4 38.8696 56.968 38.1007 56.1991C37.3318 55.4302 36.8999 54.3874 36.8999 53.3C36.8999 52.2126 37.3318 51.1698 38.1007 50.4009C38.8696 49.632 39.9125 49.2 40.9999 49.2C42.0873 49.2 43.1301 49.632 43.899 50.4009C44.6679 51.1698 45.0999 52.2126 45.0999 53.3ZM40.9999 20.5C39.9125 20.5 38.8696 20.932 38.1007 21.7009C37.3318 22.4698 36.8999 23.5126 36.8999 24.6V36.9C36.8999 37.9874 37.3318 39.0302 38.1007 39.7991C38.8696 40.568 39.9125 41 40.9999 41C42.0873 41 43.1301 40.568 43.899 39.7991C44.6679 39.0302 45.0999 37.9874 45.0999 36.9V24.6C45.0999 23.5126 44.6679 22.4698 43.899 21.7009C43.1301 20.932 42.0873 20.5 40.9999 20.5Z" fill="#2563EB"/>
</svg>
