<svg width="89" height="89" viewBox="0 0 89 89" fill="none" xmlns="http://www.w3.org/2000/svg">
<path fill-rule="evenodd" clip-rule="evenodd" d="M44.4999 80.1C53.9416 80.1 62.9966 76.3493 69.6729 69.673C76.3492 62.9967 80.0999 53.9417 80.0999 44.5C80.0999 35.0583 76.3492 26.0033 69.6729 19.327C62.9966 12.6507 53.9416 8.89999 44.4999 8.89999C35.0582 8.89999 26.0032 12.6507 19.3269 19.327C12.6506 26.0033 8.8999 35.0583 8.8999 44.5C8.8999 53.9417 12.6506 62.9967 19.3269 69.673C26.0032 76.3493 35.0582 80.1 44.4999 80.1ZM60.996 38.7461C61.8067 37.9069 62.2552 36.7828 62.245 35.616C62.2349 34.4492 61.7669 33.3331 60.9418 32.5081C60.1168 31.683 59.0007 31.215 57.8339 31.2048C56.6671 31.1947 55.543 31.6432 54.7038 32.4538L40.0499 47.1077L34.2961 41.3538C33.4568 40.5432 32.3327 40.0947 31.1659 40.1048C29.9991 40.115 28.883 40.583 28.058 41.4081C27.2329 42.2331 26.7649 43.3492 26.7548 44.516C26.7446 45.6828 27.1931 46.8069 28.0038 47.6461L36.9038 56.5461C37.7383 57.3804 38.8699 57.849 40.0499 57.849C41.2299 57.849 42.3616 57.3804 43.196 56.5461L60.996 38.7461Z" fill="#2F80ED"/>
</svg>
